<?xml version="1.0" encoding="UTF-8" standalone="no"?>
<!-- Generator: Adobe Illustrator 18.1.1, SVG Export Plug-In . SVG Version: 6.00 Build 0)  -->

<svg
   xmlns:dc="http://purl.org/dc/elements/1.1/"
   xmlns:cc="http://creativecommons.org/ns#"
   xmlns:rdf="http://www.w3.org/1999/02/22-rdf-syntax-ns#"
   xmlns:svg="http://www.w3.org/2000/svg"
   xmlns="http://www.w3.org/2000/svg"
   xmlns:sodipodi="http://sodipodi.sourceforge.net/DTD/sodipodi-0.dtd"
   xmlns:inkscape="http://www.inkscape.org/namespaces/inkscape"
   version="1.1"
   id="Capa_1"
   x="0px"
   y="0px"
   viewBox="0 0 51.167 51.167"
   style="enable-background:new 0 0 51.167 51.167;"
   xml:space="preserve"
   inkscape:version="0.48.4 r9939"
   width="100%"
   height="100%"
   sodipodi:docname="select-img.svg"><metadata
     id="metadata41"><rdf:RDF><cc:Work
         rdf:about=""><dc:format>image/svg+xml</dc:format><dc:type
           rdf:resource="http://purl.org/dc/dcmitype/StillImage" /></cc:Work></rdf:RDF></metadata><defs
     id="defs39" /><sodipodi:namedview
     pagecolor="#ffffff"
     bordercolor="#666666"
     borderopacity="1"
     objecttolerance="10"
     gridtolerance="10"
     guidetolerance="10"
     inkscape:pageopacity="0"
     inkscape:pageshadow="2"
     inkscape:window-width="1855"
     inkscape:window-height="1056"
     id="namedview37"
     showgrid="false"
     inkscape:zoom="9.2246956"
     inkscape:cx="15.501867"
     inkscape:cy="12.832931"
     inkscape:window-x="65"
     inkscape:window-y="24"
     inkscape:window-maximized="1"
     inkscape:current-layer="g3" /><g
     id="g3"><path
       style="fill:#000000;fill-opacity:1"
       d="M34.53,18.54H6.136C2.753,18.54,0,21.427,0,24.976v12.632c0,3.548,2.753,6.435,6.136,6.435H34.53   c3.383,0,6.136-2.887,6.136-6.435V24.976C40.666,21.427,37.913,18.54,34.53,18.54z M38.554,37.607c0,2.384-1.805,4.323-4.024,4.323   H6.136c-2.014,0-3.671-1.602-3.963-3.68c1.393-1.184,5.668-4.402,9.591-3.016c3.567,1.263,6.374-0.687,8.849-2.408   c1.784-1.241,3.469-2.413,5.372-2.538c4.971-0.327,12.45-0.002,12.525,0.001l0.044-0.999C38.554,29.29,38.554,37.607,38.554,37.607   z M38.554,28.288c-0.574-0.024-7.721-0.322-12.7,0.003c-2.458,0.162-4.453,1.55-6.383,2.893c-2.383,1.656-4.441,3.085-7.039,2.165   c-4.027-1.428-8.064,0.77-10.319,2.401V24.976c-0.001-2.384,1.804-4.323,4.023-4.323H34.53c2.219,0,4.024,1.938,4.024,4.322   C38.554,24.975,38.554,28.288,38.554,28.288z M46.001,18.957v19.667c0,0.553-0.447,1-1,1s-1-0.447-1-1V18.957c0-2.206-1.794-4-4-4   H8.668c-0.553,0-1-0.447-1-1s0.447-1,1-1h31.333C43.31,12.957,46.001,15.648,46.001,18.957z M51.167,13.124v19.667   c0,0.553-0.447,1-1,1s-1-0.447-1-1V13.124c0-2.206-1.794-4-4-4H13.834c-0.553,0-1-0.447-1-1s0.447-1,1-1h31.333   C48.476,7.124,51.167,9.815,51.167,13.124z M8.668,22.374c-2.159,0-3.916,1.757-3.916,3.916s1.757,3.916,3.916,3.916   s3.916-1.757,3.916-3.916S10.827,22.374,8.668,22.374z M8.668,28.206c-1.057,0-1.916-0.859-1.916-1.916s0.859-1.916,1.916-1.916   c1.057,0,1.916,0.859,1.916,1.916S9.725,28.206,8.668,28.206z"
       id="path5" /><path
       style="fill:#000000;fill-opacity:1;fill-rule:evenodd;stroke:#000000;stroke-width:0.5420233;stroke-miterlimit:4;stroke-opacity:1;stroke-dasharray:none"
       d="m 44.651867,39.448907 c -0.182432,-0.07671 -0.374138,-0.205262 -0.426012,-0.285678 -0.05188,-0.08042 -0.118708,-4.853683 -0.14852,-10.607261 l -0.0542,-10.461049 -0.251564,-0.622965 C 43.462828,16.707398 42.59348,15.730973 41.91919,15.39142 41.645418,15.253555 41.162914,15.085907 40.846961,15.018869 40.436556,14.93179 35.736584,14.896981 24.389427,14.896981 12.52193,14.896981 8.4464891,14.865097 8.2695692,14.770869 7.696917,14.465873 7.5805533,13.767491 8.0278579,13.320186 l 0.2660842,-0.266084 16.2927279,0.0013 c 17.684899,0.0014 16.761352,-0.02913 18.039732,0.596321 1.292716,0.632467 2.458044,1.939929 2.993989,3.359163 l 0.245621,0.650428 0.02969,10.611631 c 0.03251,11.620837 0.06718,10.974049 -0.600656,11.206858 -0.22435,0.07821 -0.404275,0.06957 -0.64318,-0.03088 l 0,0 z"
       id="path3870"
       inkscape:connector-curvature="0" /><path
       style="fill:#000000;fill-opacity:1;fill-rule:evenodd;stroke:#000000;stroke-width:0.5420233;stroke-miterlimit:4;stroke-opacity:1;stroke-dasharray:none"
       d="m 49.876985,33.656911 c -0.119246,-0.04881 -0.314374,-0.197159 -0.433619,-0.329674 -0.21286,-0.236548 -0.217797,-0.43276 -0.271012,-10.771958 l -0.0542,-10.531021 -0.28946,-0.617527 C 48.285159,10.24717 47.171068,9.4019613 45.868845,9.1612324 45.426617,9.0794819 40.349641,9.0431294 29.374639,9.0431294 l -15.855328,0 -0.271102,-0.2439105 C 12.835726,8.4281087 12.828626,7.8689903 13.231282,7.4663343 l 0.266084,-0.2660842 16.151886,0 c 11.298444,0 16.324505,0.035733 16.726347,0.1189172 1.063265,0.2201033 2.129635,0.8174973 2.961216,1.6589113 0.888529,0.8990361 1.276205,1.5721814 1.572383,2.7302274 0.206174,0.806135 0.21444,1.230774 0.21444,11.016534 0,11.202744 0.03226,10.671917 -0.663311,10.914394 -0.189575,0.06609 -0.3496,0.117066 -0.355608,0.113286 -0.006,-0.0038 -0.108489,-0.0468 -0.227734,-0.09561 l 0,0 z"
       id="path3872"
       inkscape:connector-curvature="0" /><path
       style="fill:#000000;fill-opacity:1;fill-rule:evenodd;stroke:#000000;stroke-width:0.5420233;stroke-miterlimit:4;stroke-opacity:1;stroke-dasharray:none"
       d="M 4.6302153,43.778091 C 3.0990859,43.366319 1.5333565,42.064809 0.79357062,40.588886 0.07608004,39.157443 0.06902674,39.067407 0.06692512,31.313096 0.06572253,26.875897 0.10665363,24.135731 0.18027541,23.724769 0.24365332,23.370989 0.50808246,22.640495 0.76789572,22.101448 1.6312161,20.310276 3.3145695,19.003903 5.1600619,18.692891 5.6535226,18.609731 10.33174,18.583553 20.770333,18.605543 l 14.905641,0.0314 0.641765,0.244415 c 1.690263,0.643735 2.905038,1.741967 3.635657,3.286861 0.662398,1.400641 0.66744,1.476176 0.632503,9.477283 l -0.03171,7.263113 -0.289391,0.79209 c -0.752118,2.058618 -2.347983,3.579054 -4.279252,4.076993 -0.592875,0.15286 -2.320343,0.170949 -15.718676,0.164599 C 7.4797058,43.936236 5.1263639,43.911522 4.6302153,43.778091 l 0,0 z M 35.962931,41.696418 c 1.084591,-0.438543 2.034104,-1.48492 2.439673,-2.688554 0.152569,-0.452787 0.186564,-1.222995 0.226214,-5.125043 0.03337,-3.283925 0.01316,-4.571469 -0.07093,-4.519497 -0.06468,0.03997 -0.117594,0.244438 -0.117594,0.454368 l 0,0.381691 -4.363288,-0.07236 c -2.576813,-0.04274 -5.250976,-0.0271 -6.531381,0.03818 -3.188827,0.162581 -3.388116,0.238596 -7.162136,2.731864 -3.204838,2.117244 -4.432871,2.627589 -6.334244,2.63238 -0.821499,0.0021 -1.289017,-0.06706 -2.310925,-0.341705 -1.453013,-0.390506 -2.2616246,-0.431714 -3.4905152,-0.17788 -1.5692398,0.324136 -3.3807208,1.163409 -4.9502899,2.293507 -1.2770869,0.91951 -1.2490598,0.869587 -0.9683143,1.724797 0.4922813,1.499592 1.4859038,2.470308 2.8850646,2.818556 0.4209676,0.104777 3.8468427,0.1307 15.3392598,0.116068 l 14.797236,-0.01884 0.612171,-0.247526 z M 3.0153396,35.236033 c 3.2220278,-2.091818 6.0989876,-2.694468 9.1192924,-1.91026 2.650494,0.688189 3.658103,0.404957 7.333701,-2.061455 2.181639,-1.463929 3.641701,-2.268846 4.697806,-2.589851 1.248203,-0.379392 3.323997,-0.474529 9.152034,-0.419452 l 5.338929,0.05046 -0.0021,-1.582125 c -0.0012,-0.870168 -0.0513,-1.923599 -0.111377,-2.340957 C 38.326078,22.87106 37.458494,21.62516 36.189797,21.00216 L 35.567569,20.69663 20.47928,20.66841 C 5.5458617,20.640479 5.3849506,20.642448 4.8026979,20.860297 c -1.1406999,0.42679 -1.9602864,1.281228 -2.4836295,2.589239 -0.2396377,0.598936 -0.2436539,0.69187 -0.2804049,6.488592 -0.020507,3.234524 -0.011209,5.880953 0.020661,5.880953 0.03187,0 0.4620771,-0.262372 0.9560149,-0.583048 z"
       id="path3874"
       inkscape:connector-curvature="0" /><path
       style="fill:#000000;fill-opacity:1;fill-rule:evenodd;stroke:#000000;stroke-width:0.5420233;stroke-miterlimit:4;stroke-opacity:1;stroke-dasharray:none"
       d="M 49.638821,33.735641 C 49.448207,33.599648 49.234114,33.366425 49.163058,33.217369 49.067308,33.016513 49.016711,30.238308 48.967603,22.485307 L 48.901343,12.024258 48.634696,11.502287 C 48.228333,10.706812 47.740099,10.202906 46.986621,9.8013065 46.336834,9.454974 46.224942,9.4323166 44.783186,9.3551285 43.947799,9.3104039 36.54962,9.2706897 28.342788,9.2668749 L 13.421276,9.2599387 13.084832,8.8767503 c -0.456119,-0.5194908 -0.4544,-0.9925879 0.0055,-1.5163961 l 0.341953,-0.3894633 16.487871,0.034329 16.487869,0.034329 0.729027,0.2912841 c 0.932124,0.3724324 1.834697,0.9881361 2.53016,1.7259872 0.697641,0.7401615 1.048897,1.3497458 1.366348,2.3712128 l 0.252675,0.813035 0,10.352645 c 0,7.843642 -0.03167,10.42352 -0.130668,10.645088 -0.277422,0.620897 -1.00762,0.860085 -1.516756,0.496841 z"
       id="path3876"
       inkscape:connector-curvature="0" /><path
       style="fill:#000000;fill-opacity:1;fill-rule:evenodd;stroke:#000000;stroke-width:0.5420233;stroke-miterlimit:4;stroke-opacity:1;stroke-dasharray:none"
       d="m 44.321246,39.498764 -0.352315,-0.232025 -0.0141,-0.992098 c -0.0078,-0.545653 -0.04434,-5.333704 -0.0813,-10.640112 l -0.0672,-9.648015 -0.37046,-0.683235 C 42.963091,16.43135 42.117903,15.652581 41.354472,15.385456 40.796214,15.190121 40.070441,15.178666 24.564496,15.120442 9.317428,15.063191 8.3413402,15.048267 8.0765945,14.86836 7.4735673,14.458573 7.3963564,13.825811 7.8780707,13.241408 l 0.3331063,-0.404115 15.087456,0.0041 c 8.298102,0.0023 15.861087,0.04697 16.806635,0.09933 1.616069,0.0895 1.761102,0.115849 2.418209,0.439342 1.446875,0.712294 2.644785,2.015959 3.289871,3.580308 l 0.323676,0.784921 -0.0019,9.822813 c -0.0019,9.750281 -0.05835,11.609819 -0.361553,11.913025 -0.271895,0.271894 -1.051819,0.281348 -1.452299,0.0176 l 4e-6,0 z"
       id="path3878"
       inkscape:connector-curvature="0" /><path
       style="fill:#000000;fill-opacity:1;fill-rule:evenodd;stroke:#000000;stroke-width:0.5420233;stroke-miterlimit:4;stroke-opacity:1;stroke-dasharray:none"
       d="M 5.8545158,44.069479 C 4.4739198,44.00523 4.4116267,43.991617 3.5780179,43.571973 1.9317637,42.743238 0.40540199,40.863956 0.05455352,39.233827 -0.10378785,38.498134 -0.20242469,26.665359 -0.06608382,24.761805 0.01933568,23.569202 0.09377599,23.165626 0.33611962,22.581273 1.1420733,20.63791 2.5924354,19.263176 4.5096339,18.625382 5.0738933,18.43767 5.9226611,18.42512 20.340615,18.391307 l 15.234754,-0.03573 0.91754,0.386106 c 1.64737,0.693222 2.855611,1.779561 3.583916,3.222326 0.686643,1.360231 0.671079,1.158771 0.721498,9.339615 l 0.046,7.46326 -0.340666,0.853683 c -0.48964,1.227001 -0.821961,1.775297 -1.543502,2.546628 -0.745984,0.797458 -1.447444,1.272719 -2.451769,1.661148 l -0.724003,0.280014 -14.255213,0.01359 c -7.840367,0.0075 -14.8939598,-0.01614 -15.6746502,-0.05247 z M 36.144383,41.355618 c 0.805591,-0.436782 1.45792,-1.128956 1.846403,-1.959184 0.257275,-0.549823 0.284912,-0.756524 0.355103,-2.655914 0.04186,-1.132828 0.08023,-3.016079 0.08526,-4.185 l 0.0091,-2.125311 -4.038074,-0.07452 c -4.401651,-0.08123 -8.329448,0.04844 -9.468339,0.312564 -0.93706,0.217319 -1.434727,0.483043 -4.197706,2.241316 -1.300673,0.827709 -2.74877,1.69795 -3.217993,1.933871 -1.86349,0.936944 -3.436611,1.097562 -5.649563,0.576828 -1.618119,-0.380764 -2.9394718,-0.39712 -4.1610466,-0.05151 -1.1008897,0.311468 -2.8083073,1.123067 -3.9126619,1.859836 -1.4884467,0.993016 -1.5176407,1.047754 -1.1223278,2.104322 0.2793558,0.746646 1.0486101,1.612499 1.7711858,1.993603 0.514184,0.271193 0.6774353,0.296484 2.288162,0.35448 0.953961,0.03435 7.8078455,0.05878 15.2308545,0.05429 l 13.496381,-0.0082 0.685218,-0.371517 0,2e-6 z M 3.2479254,34.855735 c 1.2742177,-0.765038 2.0532677,-1.136313 3.1654222,-1.508556 1.9644313,-0.657503 3.4778605,-0.704841 5.9758274,-0.18691 1.53538,0.318346 2.025888,0.336154 2.911048,0.10568 0.858619,-0.223562 1.969601,-0.826775 4.380674,-2.378506 2.419303,-1.557028 3.764644,-2.256845 4.784563,-2.48882 1.328163,-0.302084 4.126474,-0.412908 9.177927,-0.363479 l 4.796906,0.04694 -0.0033,-1.362025 c -0.0018,-0.749114 -0.05048,-1.725218 -0.108089,-2.16912 -0.194361,-1.497655 -0.983825,-2.700976 -2.188439,-3.33567 l -0.572846,-0.301826 -15.230855,0 -15.2308544,0 -0.5469714,0.288713 c -0.7855164,0.414627 -1.437619,1.114893 -1.8567294,1.993866 l -0.3647251,0.764915 -0.069836,5.712264 c -0.03841,3.141746 -0.032065,5.712264 0.0141,5.712264 0.046165,0 0.4809672,-0.238377 0.9662279,-0.529727 z"
       id="path3880"
       inkscape:connector-curvature="0" /></g><g
     id="g7" /><g
     id="g9" /><g
     id="g11" /><g
     id="g13" /><g
     id="g15" /><g
     id="g17" /><g
     id="g19" /><g
     id="g21" /><g
     id="g23" /><g
     id="g25" /><g
     id="g27" /><g
     id="g29" /><g
     id="g31" /><g
     id="g33" /><g
     id="g35" /></svg>